<?xml version="1.0" encoding="UTF-8"?>
<svg version="1.1" xmlns="http://www.w3.org/2000/svg" width="1024" height="1024">
<path d="M0 0 C337.92 0 675.84 0 1024 0 C1024 337.92 1024 675.84 1024 1024 C686.08 1024 348.16 1024 0 1024 C0 686.08 0 348.16 0 0 Z " fill="#FBFBFB" transform="translate(0,0)"/>
<path d="M0 0 C0.93928345 -0.00701431 1.87856689 -0.01402863 2.84631348 -0.02125549 C5.86503955 -0.03867697 8.88356922 -0.0451093 11.90234375 -0.046875 C12.93583954 -0.04754974 13.96933533 -0.04822449 15.03414917 -0.04891968 C30.55413974 -0.03281714 45.51367199 0.61834901 60.83984375 3.203125 C63.23936065 3.57176493 65.63911418 3.93886676 68.0390625 4.3046875 C82.66142404 6.60454654 96.76633464 9.62517877 110.83984375 14.203125 C111.82984375 14.51733398 112.81984375 14.83154297 113.83984375 15.15527344 C148.70955162 26.30020173 180.77989639 42.97429614 209.83984375 65.203125 C210.93705493 66.02923728 212.03471977 66.85474735 213.1328125 67.6796875 C220.01017393 72.87146064 226.51993189 78.34089551 232.83984375 84.203125 C233.84013742 85.11308892 234.84148676 86.02189338 235.84375 86.9296875 C244.32166236 94.62093463 252.42663343 102.46996418 259.83984375 111.203125 C260.91298828 112.44255859 260.91298828 112.44255859 262.0078125 113.70703125 C291.77971611 148.62709438 314.53542406 189.91643092 326.83984375 234.203125 C327.14414307 235.26490967 327.14414307 235.26490967 327.45458984 236.34814453 C339.20860608 277.50050778 342.23083205 321.73444273 336.83984375 364.203125 C336.7109375 365.22245117 336.58203125 366.24177734 336.44921875 367.29199219 C334.31827446 383.53550962 330.98004482 399.35958631 326.83984375 415.203125 C326.60539551 416.13141113 326.37094727 417.05969727 326.12939453 418.01611328 C324.49434969 424.31230552 322.33695441 430.2039089 319.83984375 436.203125 C319.28493306 437.64505689 318.73530835 439.08903594 318.19140625 440.53515625 C309.87167516 462.29145978 299.82974034 483.827811 286.83984375 503.203125 C286.14109131 504.25234131 286.14109131 504.25234131 285.42822266 505.32275391 C270.35114384 527.77266194 252.25074499 549.41411188 231.83984375 567.203125 C231.09863281 567.8940625 230.35742188 568.585 229.59375 569.296875 C199.86768672 596.96767927 162.81461792 617.4273749 124.83984375 631.203125 C123.96505371 631.52265137 123.09026367 631.84217773 122.18896484 632.17138672 C96.30920962 641.51427627 70.01772764 645.80393346 42.83984375 649.203125 C42.18585602 649.29417511 41.53186829 649.38522522 40.85806274 649.47903442 C36.19190723 650.11322161 31.58128662 650.37623846 26.87109375 650.40625 C25.75278168 650.41663551 25.75278168 650.41663551 24.61187744 650.42723083 C22.18781251 650.44452859 19.76396771 650.45083157 17.33984375 650.453125 C16.50569946 650.45446442 15.67155518 650.45580383 14.81213379 650.45718384 C-1.98565752 650.45137935 -18.49557866 649.28992363 -35.16015625 647.203125 C-36.06056641 647.09097656 -36.96097656 646.97882812 -37.88867188 646.86328125 C-67.28668444 643.00702373 -95.15715734 633.0319165 -122.16015625 621.203125 C-122.91039062 620.87683105 -123.660625 620.55053711 -124.43359375 620.21435547 C-143.17098453 611.99933307 -160.5911426 601.1531553 -177.16015625 589.203125 C-178.70509766 588.10097656 -178.70509766 588.10097656 -180.28125 586.9765625 C-193.95903918 576.98614544 -206.05428156 565.50338381 -218.03515625 553.578125 C-218.90794724 552.71323456 -218.90794724 552.71323456 -219.79837036 551.83087158 C-227.05449206 544.62553135 -233.86668307 537.28387339 -240.16015625 529.203125 C-240.69044434 528.53216797 -241.22073242 527.86121094 -241.76708984 527.16992188 C-294.70934178 459.59629139 -318.84618277 373.23750413 -310.03515625 287.91796875 C-306.04549724 255.06876874 -297.67890621 223.44586777 -284.16015625 193.203125 C-283.76715332 192.32221191 -283.37415039 191.44129883 -282.96923828 190.53369141 C-272.58541907 167.51015676 -259.63415039 146.15051017 -244.16015625 126.203125 C-243.49242187 125.34074219 -242.8246875 124.47835937 -242.13671875 123.58984375 C-237.39153798 117.5599006 -232.3312489 111.8683835 -227.16015625 106.203125 C-225.63900506 104.49507469 -224.11816962 102.78674312 -222.59765625 101.078125 C-216.18626822 93.9654914 -209.445 87.4119392 -202.16015625 81.203125 C-201.22558594 80.39101563 -200.29101562 79.57890625 -199.328125 78.7421875 C-145.01815453 31.79918463 -72.45223461 0.36389516 0 0 Z " fill="#FBFBFB" transform="translate(498.16015625,186.796875)"/>
<path d="M0 0 C0 10.56 0 21.12 0 32 C-5.094375 32.2475 -10.18875 32.495 -15.4375 32.75 C-27.34172167 33.43085276 -38.57621848 34.38546541 -50 38 C-51.66924927 38.48835497 -53.33852158 38.97663117 -55.0078125 39.46484375 C-72.30055846 44.70703927 -88.08090131 52.38330861 -102 64 C-102.88816406 64.72574219 -103.77632812 65.45148438 -104.69140625 66.19921875 C-109.81958228 70.19040504 -109.81958228 70.19040504 -112 76 C-111.26934284 77.83258664 -111.26934284 77.83258664 -109.97265625 79.546875 C-109.51391113 80.21879883 -109.05516602 80.89072266 -108.58251953 81.58300781 C-108.08091309 82.29811523 -107.57930664 83.01322266 -107.0625 83.75 C-91.82129101 106.38044327 -82.82607132 131.03700354 -82.8125 158.4375 C-82.80025391 159.73494141 -82.78800781 161.03238281 -82.77539062 162.36914062 C-82.77345703 163.62791016 -82.77152344 164.88667969 -82.76953125 166.18359375 C-82.76542236 167.32368896 -82.76131348 168.46378418 -82.75708008 169.63842773 C-83.02819807 173.39021025 -83.85478916 176.42820171 -85 180 C-94.36752429 176.52495067 -102.12320414 170.30584069 -109.6875 163.91796875 C-112.04590723 161.89412844 -112.04590723 161.89412844 -115 160 C-115.37109375 156.8671875 -115.37109375 156.8671875 -115.4375 152.875 C-116.12833505 136.57898902 -121.2342748 116.89105479 -132.3125 104.390625 C-133.1478125 103.70226562 -133.1478125 103.70226562 -134 103 C-139.84973688 117.48506275 -137.55564678 132.16885132 -131.64453125 146.22265625 C-128.53109299 152.82514865 -124.83396856 158.53886985 -120 164 C-119.28199219 164.81210937 -118.56398438 165.62421875 -117.82421875 166.4609375 C-104.97936555 180.12567494 -88.01489128 188.47306211 -70 193 C-69.40622559 193.1757959 -68.81245117 193.3515918 -68.20068359 193.53271484 C-54.42627835 196.45752199 -35.94632171 195.75018445 -23 190 C-22.39639648 189.73735352 -21.79279297 189.47470703 -21.17089844 189.20410156 C-12.61322812 185.42139463 -5.5073392 181.585408 -1 173 C-0.67708984 171.89011719 -0.67708984 171.89011719 -0.34765625 170.7578125 C1.60371877 166.76456391 4.59202822 164.31042987 7.875 161.375 C8.54321777 160.76543457 9.21143555 160.15586914 9.89990234 159.52783203 C11.26802941 158.28073785 12.63929146 157.0370742 14.01367188 155.796875 C15.84867884 154.13688837 17.66972393 152.46342944 19.484375 150.78125 C23.88635426 146.70692184 28.29957457 142.73069891 33 139 C33.17428234 145.20713273 33.30064828 151.41281236 33.38452148 157.62182617 C33.41951769 159.72950072 33.46713222 161.8370079 33.52807617 163.9440918 C34.1577402 186.28922778 34.1577402 186.28922778 26 195 C25.47688232 195.6293042 24.95376465 196.2586084 24.41479492 196.90698242 C22.96953062 198.59031262 21.46625424 200.14239088 19.875 201.6875 C19.04150024 202.50456421 19.04150024 202.50456421 18.19116211 203.33813477 C4.8077897 216.04320025 -12.28737388 222.14082448 -30 226 C-30.76473633 226.176521 -31.52947266 226.35304199 -32.31738281 226.53491211 C-64.57867511 232.12808301 -97.86866684 222.73901007 -124.25 204.1875 C-147.56935313 187.16367493 -163.1833904 164.83594485 -168.73828125 136.24609375 C-168.82464844 135.50488281 -168.91101563 134.76367188 -169 134 C-169.13148438 133.09894531 -169.26296875 132.19789063 -169.3984375 131.26953125 C-168.79858306 126.34719631 -166.17781728 123.2036842 -163.3125 119.25 C-162.72452637 118.41654053 -162.13655273 117.58308105 -161.53076172 116.72436523 C-159.701075 114.13934131 -157.85192693 111.56912142 -156 109 C-154.92244729 107.4861963 -153.84559315 105.97189503 -152.76953125 104.45703125 C-148.35397683 98.27127709 -143.88056692 92.13555067 -139.26953125 86.09375 C-127.45020006 70.60125076 -116.96786461 55.07284568 -108.9375 37.26953125 C-108.61064209 36.55869385 -108.28378418 35.84785645 -107.94702148 35.11547852 C-107.31754614 33.70934192 -106.72274775 32.28714664 -106.16430664 30.85131836 C-103.644484 24.87329979 -100.18210107 22.68617667 -94.4375 19.9375 C-93.59759521 19.51831299 -92.75769043 19.09912598 -91.89233398 18.66723633 C-62.58757561 4.38229352 -32.34971864 -0.53916198 0 0 Z " fill="#6D777F" transform="translate(647,367)"/>
<path d="M0 0 C0.66 0 1.32 0 2 0 C3.79781992 2.31725923 5.47124153 4.64432682 7.125 7.0625 C7.90919312 8.19196045 7.90919312 8.19196045 8.70922852 9.34423828 C9.86013372 11.00284159 11.00818059 12.66343085 12.15380859 14.32568359 C14.05819712 17.08430194 15.97473969 19.83411293 17.89453125 22.58203125 C21.27840121 27.42734189 24.65036603 32.28075761 28.01611328 37.13867188 C29.32514536 39.02666793 30.63598052 40.91341527 31.94873047 42.79882812 C33.7623136 45.40424422 35.5694822 48.01399068 37.375 50.625 C38.18698853 51.78781494 38.18698853 51.78781494 39.01538086 52.97412109 C39.51303955 53.69680176 40.01069824 54.41948242 40.5234375 55.1640625 C41.1719165 56.09919678 41.1719165 56.09919678 41.83349609 57.05322266 C43 59 43 59 45 64 C35.76 64 26.52 64 17 64 C17 66.64 17 69.28 17 72 C16.65209961 74.61035156 16.65209961 74.61035156 16.15234375 76.890625 C15.96309326 77.75469971 15.77384277 78.61877441 15.57885742 79.5090332 C15.36720947 80.41355225 15.15556152 81.31807129 14.9375 82.25 C14.71489502 83.20801514 14.49229004 84.16603027 14.26293945 85.15307617 C6.4278557 117.628737 -9.71119356 144.34520951 -30.07177734 170.50390625 C-46.47151028 191.73344152 -65.24573117 216.25065662 -67 244 C-67.11601562 245.74796875 -67.11601562 245.74796875 -67.234375 247.53125 C-67.79964862 263.48452785 -63.67757724 278.7819044 -52.75 290.8125 C-47.20992524 295.93949901 -41.12535645 299.23939168 -33.5 299.5625 C-27.33942825 299.26497239 -20.85149433 297.62012308 -16.21875 293.36328125 C-15.61546875 292.68845703 -15.61546875 292.68845703 -15 292 C-11.91213012 293.43540436 -9.30065446 295.16966948 -6.5625 297.1875 C-0.66409044 301.38427571 5.57542386 304.68701324 12 308 C10.92212016 314.03349813 6.2607149 317.31166355 1.546875 320.83203125 C-12.48428874 330.2476806 -27.32299222 333.62172228 -44 332 C-61.1337776 328.17534294 -75.44493954 317.13375229 -84.86328125 302.55078125 C-98.69770143 280.10800056 -102.58814842 252.67936752 -97.875 226.8125 C-91.06866621 199.11230434 -74.35836338 176.66885696 -57.6015625 154.15429688 C-45.59407823 138.0027662 -34.33127088 121.37885508 -26 103 C-25.68160156 102.30132812 -25.36320312 101.60265625 -25.03515625 100.8828125 C-19.39390208 88.33158836 -16.5295722 76.76614983 -15 63 C-24.24 63 -33.48 63 -43 63 C-41.39995632 59.79991265 -39.80183162 57.15089776 -37.76171875 54.24609375 C-37.11299805 53.31877441 -36.46427734 52.39145508 -35.79589844 51.43603516 C-34.75224121 49.95176025 -34.75224121 49.95176025 -33.6875 48.4375 C-32.22723323 46.35070207 -30.76760661 44.26345606 -29.30859375 42.17578125 C-28.5801123 41.13373535 -27.85163086 40.09168945 -27.10107422 39.01806641 C-24.12248049 34.73949615 -21.18435969 30.43396586 -18.25 26.125 C-16.16973225 23.08122621 -14.08582298 20.03996918 -12 17 C-11.44199707 16.1857959 -10.88399414 15.3715918 -10.30908203 14.53271484 C-8.65106959 12.12067335 -6.98334413 9.71566511 -5.3125 7.3125 C-4.80686523 6.57467285 -4.30123047 5.8368457 -3.78027344 5.07666016 C-2.57100112 3.3477591 -1.29206322 1.66793616 0 0 Z " fill="#1FB0AB" transform="translate(529,282)"/>
<path d="M0 0 C0.93928345 -0.00701431 1.87856689 -0.01402863 2.84631348 -0.02125549 C5.86503955 -0.03867697 8.88356922 -0.0451093 11.90234375 -0.046875 C12.93583954 -0.04754974 13.96933533 -0.04822449 15.03414917 -0.04891968 C30.55413974 -0.03281714 45.51367199 0.61834901 60.83984375 3.203125 C63.23936065 3.57176493 65.63911418 3.93886676 68.0390625 4.3046875 C82.66142404 6.60454654 96.76633464 9.62517877 110.83984375 14.203125 C111.82984375 14.51733398 112.81984375 14.83154297 113.83984375 15.15527344 C148.70955162 26.30020173 180.77989639 42.97429614 209.83984375 65.203125 C210.93705493 66.02923728 212.03471977 66.85474735 213.1328125 67.6796875 C220.01017393 72.87146064 226.51993189 78.34089551 232.83984375 84.203125 C233.84013742 85.11308892 234.84148676 86.02189338 235.84375 86.9296875 C244.32166236 94.62093463 252.42663343 102.46996418 259.83984375 111.203125 C260.91298828 112.44255859 260.91298828 112.44255859 262.0078125 113.70703125 C291.77971611 148.62709438 314.53542406 189.91643092 326.83984375 234.203125 C327.14414307 235.26490967 327.14414307 235.26490967 327.45458984 236.34814453 C339.20860608 277.50050778 342.23083205 321.73444273 336.83984375 364.203125 C336.7109375 365.22245117 336.58203125 366.24177734 336.44921875 367.29199219 C334.31827446 383.53550962 330.98004482 399.35958631 326.83984375 415.203125 C326.60539551 416.13141113 326.37094727 417.05969727 326.12939453 418.01611328 C324.49434969 424.31230552 322.33695441 430.2039089 319.83984375 436.203125 C319.28493306 437.64505689 318.73530835 439.08903594 318.19140625 440.53515625 C309.87167516 462.29145978 299.82974034 483.827811 286.83984375 503.203125 C286.14109131 504.25234131 286.14109131 504.25234131 285.42822266 505.32275391 C270.35114384 527.77266194 252.25074499 549.41411188 231.83984375 567.203125 C231.09863281 567.8940625 230.35742188 568.585 229.59375 569.296875 C199.86768672 596.96767927 162.81461792 617.4273749 124.83984375 631.203125 C123.96505371 631.52265137 123.09026367 631.84217773 122.18896484 632.17138672 C96.30920962 641.51427627 70.01772764 645.80393346 42.83984375 649.203125 C42.18585602 649.29417511 41.53186829 649.38522522 40.85806274 649.47903442 C36.19190723 650.11322161 31.58128662 650.37623846 26.87109375 650.40625 C25.75278168 650.41663551 25.75278168 650.41663551 24.61187744 650.42723083 C22.18781251 650.44452859 19.76396771 650.45083157 17.33984375 650.453125 C16.50569946 650.45446442 15.67155518 650.45580383 14.81213379 650.45718384 C-1.98565752 650.45137935 -18.49557866 649.28992363 -35.16015625 647.203125 C-36.06056641 647.09097656 -36.96097656 646.97882812 -37.88867188 646.86328125 C-67.28668444 643.00702373 -95.15715734 633.0319165 -122.16015625 621.203125 C-122.91039062 620.87683105 -123.660625 620.55053711 -124.43359375 620.21435547 C-143.17098453 611.99933307 -160.5911426 601.1531553 -177.16015625 589.203125 C-178.70509766 588.10097656 -178.70509766 588.10097656 -180.28125 586.9765625 C-193.95903918 576.98614544 -206.05428156 565.50338381 -218.03515625 553.578125 C-218.90794724 552.71323456 -218.90794724 552.71323456 -219.79837036 551.83087158 C-227.05449206 544.62553135 -233.86668307 537.28387339 -240.16015625 529.203125 C-240.69044434 528.53216797 -241.22073242 527.86121094 -241.76708984 527.16992188 C-294.70934178 459.59629139 -318.84618277 373.23750413 -310.03515625 287.91796875 C-306.04549724 255.06876874 -297.67890621 223.44586777 -284.16015625 193.203125 C-283.76715332 192.32221191 -283.37415039 191.44129883 -282.96923828 190.53369141 C-272.58541907 167.51015676 -259.63415039 146.15051017 -244.16015625 126.203125 C-243.49242187 125.34074219 -242.8246875 124.47835937 -242.13671875 123.58984375 C-237.39153798 117.5599006 -232.3312489 111.8683835 -227.16015625 106.203125 C-225.63900506 104.49507469 -224.11816962 102.78674312 -222.59765625 101.078125 C-216.18626822 93.9654914 -209.445 87.4119392 -202.16015625 81.203125 C-201.22558594 80.39101563 -200.29101562 79.57890625 -199.328125 78.7421875 C-145.01815453 31.79918463 -72.45223461 0.36389516 0 0 Z M-131.36572266 40.25292969 C-133.16662216 41.20654885 -134.97962123 42.1326734 -136.796875 43.0546875 C-158.22177607 54.03823095 -177.46690956 68.0680531 -195.59399414 83.84179688 C-196.71061496 84.81237797 -197.83282646 85.7765428 -198.95874023 86.73632812 C-211.73253236 97.71862507 -223.89167001 109.83841581 -234.16015625 123.203125 C-235.06774846 124.30268179 -235.97951579 125.39880035 -236.89453125 126.4921875 C-249.59929129 141.7796229 -259.91233774 158.64238779 -269.16015625 176.203125 C-269.51416504 176.87263184 -269.86817383 177.54213867 -270.23291016 178.23193359 C-288.99088334 213.97859201 -299.58821551 252.20929248 -304.16015625 292.203125 C-304.25876953 293.03030029 -304.35738281 293.85747559 -304.45898438 294.7097168 C-305.40731912 303.624234 -305.40378468 312.56043757 -305.41015625 321.515625 C-305.41083099 322.37216675 -305.41150574 323.2287085 -305.41220093 324.11120605 C-305.36871057 359.13923203 -300.06759999 392.90209473 -289.16015625 426.203125 C-288.8470752 427.16557129 -288.53399414 428.12801758 -288.21142578 429.11962891 C-283.14871995 444.43639112 -276.40623796 458.8104615 -269.16015625 473.203125 C-268.75651855 474.0168457 -268.35288086 474.83056641 -267.93701172 475.66894531 C-256.76426914 498.13086375 -241.62486463 518.35767492 -225.16015625 537.203125 C-224.44730469 538.028125 -223.73445313 538.853125 -223 539.703125 C-213.82031114 550.13536953 -203.93492372 560.4050235 -193.16015625 569.203125 C-192.43602539 569.80592285 -192.43602539 569.80592285 -191.69726562 570.42089844 C-124.85232343 625.96642869 -39.75971064 651.0098314 46.47387695 643.19165039 C56.70688281 642.13025994 66.76849677 640.26753568 76.83984375 638.203125 C78.3267862 637.91387369 79.81376358 637.62480186 81.30078125 637.3359375 C133.53515128 626.81433282 185.36239839 601.91741235 224.46875 565.3984375 C226.48711698 563.52970234 228.53976831 561.72706919 230.62109375 559.9296875 C241.30660535 550.60582319 251.12376241 540.38278568 259.83984375 529.203125 C260.74170467 528.11072534 261.64685659 527.02103716 262.5546875 525.93359375 C285.41394178 498.35837924 302.26419793 466.61657304 314.83984375 433.203125 C315.23606934 432.16325439 315.63229492 431.12338379 316.04052734 430.05200195 C319.33621675 421.15944239 321.78812469 412.22831916 323.96484375 403.015625 C324.13759827 402.29290405 324.31035278 401.57018311 324.48834229 400.82556152 C330.55064689 375.40272242 333.2517699 350.15241329 333.15234375 324.015625 C333.15010803 322.54851074 333.15010803 322.54851074 333.14782715 321.05175781 C333.10560425 305.5792697 332.41089702 290.48950466 329.83984375 275.203125 C329.69530762 274.30416504 329.55077148 273.40520508 329.40185547 272.47900391 C319.96579556 214.82812625 294.66892387 159.95017403 255.83984375 116.203125 C254.60427734 114.80126953 254.60427734 114.80126953 253.34375 113.37109375 C241.75556797 100.47769791 229.6530379 87.72351874 215.83984375 77.203125 C214.41091797 76.06617188 214.41091797 76.06617188 212.953125 74.90625 C160.8469698 33.8489533 93.9606064 6.11505361 26.93359375 6.03515625 C25.92880981 6.03182785 24.92402588 6.02849945 23.88879395 6.02507019 C21.77450004 6.0200423 19.66019831 6.01766057 17.54589844 6.01782227 C14.37551157 6.01564944 11.2054812 5.99748633 8.03515625 5.97851562 C-40.10679398 5.84046795 -88.8088158 17.60333839 -131.36572266 40.25292969 Z " fill="#1E3E75" transform="translate(498.16015625,186.796875)"/>
<path d="M0 0 C10.56 0 21.12 0 32 0 C32 50.82 32 101.64 32 154 C39.26 154.99 46.52 155.98 54 157 C58.5978322 157.94406899 63.0897503 158.90801912 67.625 160.0625 C68.68460937 160.31837891 69.74421875 160.57425781 70.8359375 160.83789062 C79.98605524 163.0963905 79.98605524 163.0963905 83 165 C84.12393248 167.51855026 85.02823923 169.89197682 85.875 172.5 C89.41990503 182.59971991 94.3438145 190.50907713 101.16796875 198.7734375 C102.84197393 200.80794273 104.43656379 202.87992241 106 205 C101.84689784 204.49854185 98.33751153 203.41836896 94.49609375 201.77832031 C81.45998565 196.22657078 67.78751848 193.09450345 54 190 C53.19691406 189.81421387 52.39382813 189.62842773 51.56640625 189.43701172 C34.73263778 185.64784642 17.02828458 185.94601581 0 185 C0 123.95 0 62.9 0 0 Z " fill="#153A72" transform="translate(344,399)"/>
<path d="M0 0 C0.93928345 -0.00701431 1.87856689 -0.01402863 2.84631348 -0.02125549 C5.86503955 -0.03867697 8.88356922 -0.0451093 11.90234375 -0.046875 C12.93583954 -0.04754974 13.96933533 -0.04822449 15.03414917 -0.04891968 C30.55413974 -0.03281714 45.51367199 0.61834901 60.83984375 3.203125 C63.23936065 3.57176493 65.63911418 3.93886676 68.0390625 4.3046875 C82.66142404 6.60454654 96.76633464 9.62517877 110.83984375 14.203125 C111.82984375 14.51733398 112.81984375 14.83154297 113.83984375 15.15527344 C148.70955162 26.30020173 180.77989639 42.97429614 209.83984375 65.203125 C210.93705493 66.02923728 212.03471977 66.85474735 213.1328125 67.6796875 C220.01017393 72.87146064 226.51993189 78.34089551 232.83984375 84.203125 C233.84013742 85.11308892 234.84148676 86.02189338 235.84375 86.9296875 C244.32166236 94.62093463 252.42663343 102.46996418 259.83984375 111.203125 C260.55527344 112.02941406 261.27070312 112.85570312 262.0078125 113.70703125 C291.77971611 148.62709438 314.53542406 189.91643092 326.83984375 234.203125 C327.14414307 235.26490967 327.14414307 235.26490967 327.45458984 236.34814453 C339.20860608 277.50050778 342.23083205 321.73444273 336.83984375 364.203125 C336.7109375 365.22245117 336.58203125 366.24177734 336.44921875 367.29199219 C334.31827446 383.53550962 330.98004482 399.35958631 326.83984375 415.203125 C326.60539551 416.13141113 326.37094727 417.05969727 326.12939453 418.01611328 C324.49440461 424.31209405 322.34633297 430.20751618 319.83984375 436.203125 C319.21585878 437.7861139 318.59603149 439.37074829 317.98046875 440.95703125 C313.68088248 451.9223283 308.99700478 462.61448587 303.83984375 473.203125 C301.85984375 472.873125 299.87984375 472.543125 297.83984375 472.203125 C299.21013081 467.62801356 301.08004194 463.43239525 303.11376953 459.12768555 C323.13719222 416.59593265 332.33076194 370.91755835 332.15234375 324.015625 C332.15010803 322.54851074 332.15010803 322.54851074 332.14782715 321.05175781 C332.10560425 305.5792697 331.41089702 290.48950466 328.83984375 275.203125 C328.69530762 274.30416504 328.55077148 273.40520508 328.40185547 272.47900391 C318.97404528 214.87852902 293.70166613 159.87943131 254.83984375 116.203125 C254.00453125 115.25695312 253.16921875 114.31078125 252.30859375 113.3359375 C241.02198305 100.79148163 229.26436558 88.47010397 215.83984375 78.203125 C214.40898438 77.06423828 214.40898438 77.06423828 212.94921875 75.90234375 C160.83500544 34.85258025 93.96452609 7.11505828 26.93359375 7.03515625 C25.92880981 7.03182785 24.92402588 7.02849945 23.88879395 7.02507019 C21.77450004 7.0200423 19.66019831 7.01766057 17.54589844 7.01782227 C14.37551157 7.01564944 11.2054812 6.99748633 8.03515625 6.97851562 C-40.10679398 6.84046795 -88.8088158 18.60333839 -131.36572266 41.25292969 C-133.16662216 42.20654885 -134.97962123 43.1326734 -136.796875 44.0546875 C-161.46305049 56.69988056 -182.79738173 73.51580678 -203.50390625 91.765625 C-205.67004511 93.64567005 -207.90017195 95.43751227 -210.16015625 97.203125 C-210.82015625 96.213125 -211.48015625 95.223125 -212.16015625 94.203125 C-214.63515625 95.193125 -214.63515625 95.193125 -217.16015625 96.203125 C-209.38291519 86.5839058 -199.81188069 78.87062638 -190.16015625 71.203125 C-189.27360352 70.4918042 -189.27360352 70.4918042 -188.36914062 69.76611328 C-135.99881929 27.92067522 -67.55030103 0.33927494 0 0 Z " fill="#1FADA9" transform="translate(498.16015625,186.796875)"/>
<path d="M0 0 C0 10.56 0 21.12 0 32 C-5.094375 32.2475 -10.18875 32.495 -15.4375 32.75 C-27.34172167 33.43085276 -38.57621848 34.38546541 -50 38 C-51.66924927 38.48835497 -53.33852158 38.97663117 -55.0078125 39.46484375 C-77.85492324 46.39081269 -97.20995995 57.94843285 -114 75 C-114.72316406 73.95199219 -114.72316406 73.95199219 -115.4609375 72.8828125 C-116.09257813 71.97273438 -116.72421875 71.06265625 -117.375 70.125 C-118.00148438 69.22007812 -118.62796875 68.31515625 -119.2734375 67.3828125 C-120.9298095 64.96505875 -120.9298095 64.96505875 -123 63 C-122.5153125 62.25878906 -122.030625 61.51757812 -121.53125 60.75390625 C-116.65974979 53.10002995 -112.61610824 45.2977403 -108.859375 37.04296875 C-108.54863037 36.37692627 -108.23788574 35.71088379 -107.91772461 35.0246582 C-107.30009554 33.66206234 -106.72048445 32.2816608 -106.17797852 30.88745117 C-103.65176773 24.8893704 -100.20037307 22.69491946 -94.4375 19.9375 C-93.59759521 19.51831299 -92.75769043 19.09912598 -91.89233398 18.66723633 C-62.58757561 4.38229352 -32.34971864 -0.53916198 0 0 Z " fill="#6E787F" transform="translate(647,367)"/>
<path d="M0 0 C1.29349365 0.00523682 2.5869873 0.01047363 3.91967773 0.01586914 C4.9496714 0.01799156 4.9496714 0.01799156 6.00047302 0.02015686 C8.20144949 0.0257706 10.40232557 0.03832532 12.60327148 0.05102539 C14.09220231 0.05603863 15.58113473 0.06060184 17.07006836 0.06469727 C20.72700223 0.07574446 24.38387707 0.09301826 28.04077148 0.11352539 C28.34289522 12.55282322 28.5734221 24.99123913 28.71432972 37.43346786 C28.78198511 43.21209666 28.87363011 48.98820357 29.02148438 54.76538086 C29.16346114 60.34828421 29.24061077 65.92877369 29.27417564 71.51334381 C29.29807075 73.63620242 29.3447381 75.75893881 29.41526222 77.88076019 C29.97303147 95.36861241 29.97303147 95.36861241 25.19418335 101.0333252 C22.0781564 104.13872522 18.64377163 106.60262556 15.04077148 109.11352539 C13.73660905 110.35013166 12.45387054 111.61151344 11.22827148 112.92602539 C6.59596429 117.6274715 2.02281902 122.22845069 -3.95922852 125.11352539 C-3.98255761 108.96320619 -4.00020774 92.81289243 -4.01104069 76.66256046 C-4.01620362 69.16419475 -4.02324627 61.66583948 -4.03466797 54.16748047 C-4.04461488 47.63422035 -4.05108196 41.1009678 -4.05331701 34.56770033 C-4.05462411 31.10630732 -4.05770988 27.64493597 -4.06495857 24.18354988 C-4.07297258 20.32565013 -4.07321965 16.46777182 -4.07275391 12.60986328 C-4.07634918 11.45396698 -4.07994446 10.29807068 -4.08364868 9.10714722 C-4.08227402 8.06241745 -4.08089935 7.01768768 -4.07948303 5.94129944 C-4.08040483 5.02780259 -4.08132662 4.11430574 -4.08227634 3.17312717 C-3.88502797 -0.12845968 -3.36689951 0.12916494 0 0 Z " fill="#27AEAC" transform="translate(651.959228515625,398.886474609375)"/>
<path d="M0 0 C8.90059775 0 17.19612591 0.08679257 25.9375 1.1875 C27.00597168 1.3213208 28.07444336 1.4551416 29.17529297 1.59301758 C53.79451618 4.84957658 76.67774808 11.40145201 98.8125 22.75 C99.89901855 23.30494141 100.98553711 23.85988281 102.10498047 24.43164062 C103.10803223 24.96466797 104.11108398 25.49769531 105.14453125 26.046875 C106.48028198 26.75602051 106.48028198 26.75602051 107.84301758 27.47949219 C110 29 110 29 112 33 C106.39 41.25 100.78 49.5 95 58 C91.37 56.02 87.74 54.04 84 52 C60.61292634 39.90236686 36.56047072 34.50478835 10.375 33.4375 C6.95125 33.293125 3.5275 33.14875 0 33 C0 22.11 0 11.22 0 0 Z " fill="#153D76" transform="translate(376,366)"/>
<path d="M0 0 C1.65 0 3.3 0 5 0 C6 3 6 3 4.62109375 6.2734375 C3.90755633 7.6481567 3.17837108 9.01481672 2.4375 10.375 C2.03982422 11.11451904 1.64214844 11.85403809 1.23242188 12.6159668 C-6.576256 26.78460731 -15.94362308 40.33457948 -26 53 C-26.48871582 53.6172998 -26.97743164 54.23459961 -27.48095703 54.87060547 C-34.1409645 63.24037022 -41.05975147 71.31994862 -48.375 79.125 C-49.01638916 79.81102295 -49.65777832 80.4970459 -50.31860352 81.20385742 C-54.09452845 85.17756658 -58.02332869 88.86256018 -62.18261719 92.43212891 C-64.49822403 94.42982197 -66.71136166 96.52850366 -68.9375 98.625 C-98.47436526 125.47669569 -134.64689869 145.44976829 -172 159 C-172.87479004 159.31952637 -173.74958008 159.63905273 -174.65087891 159.96826172 C-200.53063413 169.31115127 -226.82211611 173.60080846 -254 177 C-254.65398773 177.09105011 -255.30797546 177.18210022 -255.98178101 177.27590942 C-260.64793652 177.91009661 -265.25855713 178.17311346 -269.96875 178.203125 C-271.08706207 178.21351051 -271.08706207 178.21351051 -272.22796631 178.22410583 C-274.65203124 178.24140359 -277.07587604 178.24770657 -279.5 178.25 C-280.75121643 178.25200912 -280.75121643 178.25200912 -282.02770996 178.25405884 C-298.82550127 178.24825435 -315.33542241 177.08679863 -332 175 C-333.35061523 174.83177734 -333.35061523 174.83177734 -334.72851562 174.66015625 C-364.12652819 170.80389873 -391.99700109 160.8287915 -419 149 C-419.75023437 148.67370605 -420.50046875 148.34741211 -421.2734375 148.01123047 C-438.44185253 140.48409312 -454.64302479 130.7239637 -470 120 C-469.34 118.02 -468.68 116.04 -468 114 C-465.19087725 115.35139248 -462.58022673 116.85256568 -459.96484375 118.546875 C-438.41248092 132.32038319 -415.8790825 143.82469426 -392 153 C-390.99864014 153.39106934 -390.99864014 153.39106934 -389.97705078 153.79003906 C-371.92487229 160.73052661 -352.02306129 164.70079749 -333 168 C-331.35064453 168.28810547 -331.35064453 168.28810547 -329.66796875 168.58203125 C-293.91326077 174.261922 -255.30572711 172.23691878 -220 165 C-218.51305755 164.71074869 -217.02608017 164.42167686 -215.5390625 164.1328125 C-163.06247832 153.56241846 -111.43354251 128.52265825 -72.1015625 91.953125 C-70.21442913 90.19928358 -68.28212878 88.53451702 -66.3125 86.875 C-55.94197239 77.8113275 -46.4803601 67.8393335 -38 57 C-37.09665805 55.90644542 -36.19022526 54.81543911 -35.28125 53.7265625 C-21.516383 37.11862646 -10.398056 18.85333252 0 0 Z " fill="#1F467D" transform="translate(795,659)"/>
<path d="M0 0 C3.94212799 1.31404266 5.29400807 3.77969213 7.5625 7.0625 C7.99868652 7.68592285 8.43487305 8.3093457 8.88427734 8.95166016 C27.04475602 35.17333374 40.17141282 61.957489 40.1875 94.4375 C40.19974609 95.73494141 40.21199219 97.03238281 40.22460938 98.36914062 C40.22654297 99.62791016 40.22847656 100.88667969 40.23046875 102.18359375 C40.23457764 103.32368896 40.23868652 104.46378418 40.24291992 105.63842773 C39.97180193 109.39021025 39.14521084 112.42820171 38 116 C28.63247571 112.52495067 20.87679586 106.30584069 13.3125 99.91796875 C10.95409277 97.89412844 10.95409277 97.89412844 8 96 C7.62890625 92.8671875 7.62890625 92.8671875 7.5625 88.875 C6.62189699 66.68724788 -2.95365062 43.58687241 -19 28 C-17.40297344 22.96397758 -14.37295052 19.24644143 -11.1875 15.125 C-10.13854924 13.75319542 -9.09036525 12.38080416 -8.04296875 11.0078125 C-7.53556152 10.34426758 -7.0281543 9.68072266 -6.50537109 8.99707031 C-4.27629255 6.03990805 -2.13627067 3.02473813 0 0 Z " fill="#123D76" transform="translate(524,431)"/>
<path d="M0 0 C4.16254655 1.029864 7.5060681 2.69073096 11.1484375 4.87109375 C11.83035156 5.2678833 12.51226563 5.66467285 13.21484375 6.07348633 C14.66139452 6.91714293 16.10502934 7.76581663 17.54589844 8.61914062 C19.79181765 9.94443973 22.05011427 11.24601019 24.3125 12.54296875 C40.01927698 21.58404263 40.01927698 21.58404263 44.7734375 25.93359375 C45.1652832 28.41943359 45.1652832 28.41943359 44.7734375 30.93359375 C43.39916992 32.51025391 43.39916992 32.51025391 41.44140625 33.84765625 C40.70841309 34.35200195 39.97541992 34.85634766 39.22021484 35.37597656 C34.90076766 38.1257344 30.51943316 40.74720611 26.0859375 43.30859375 C18.28703009 47.80843643 18.28703009 47.80843643 10.66015625 52.58984375 C10.07516357 52.97092285 9.4901709 53.35200195 8.88745117 53.74462891 C7.39303912 54.72975184 5.91078467 55.73325103 4.4296875 56.73828125 C1.05755649 58.2557402 -0.73286389 58.04254865 -4.2265625 56.93359375 C-6.39935671 53.67440243 -6.48169572 52.73185046 -6.5012207 48.95898438 C-6.51075272 47.94783569 -6.52028473 46.93668701 -6.53010559 45.89489746 C-6.52919418 44.80422974 -6.52828278 43.71356201 -6.52734375 42.58984375 C-6.53162888 41.46920532 -6.535914 40.34856689 -6.54032898 39.19396973 C-6.54607465 36.82349321 -6.54657081 34.45299905 -6.54223633 32.08251953 C-6.53907498 28.4479378 -6.56253836 24.81416863 -6.58789062 21.1796875 C-6.59016337 18.87890728 -6.59086723 16.57812486 -6.58984375 14.27734375 C-6.5990535 13.18667603 -6.60826324 12.0960083 -6.61775208 10.97229004 C-6.61152328 9.96114136 -6.60529449 8.94999268 -6.59887695 7.90820312 C-6.59950638 7.01790405 -6.6001358 6.12760498 -6.6007843 5.21032715 C-6.2265625 2.93359375 -6.2265625 2.93359375 -4.904953 1.11853027 C-3.2265625 -0.06640625 -3.2265625 -0.06640625 0 0 Z " fill="#22B0AD" transform="translate(582.2265625,456.06640625)"/>
<path d="M0 0 C3.3 0 6.6 0 10 0 C10.33 5.28 10.66 10.56 11 16 C12.65 15.01 14.3 14.02 16 13 C21.19461564 11.9831095 25.77891594 12.46184849 30.375 15.125 C33.91322462 17.71778808 36.23727487 19.88697471 38 24 C38.73828161 30.65302046 39.17527913 37.43296116 35 43 C30.50983058 47.4779012 26.8907942 49.1445672 20.5625 49.1875 C19.61503906 49.20167969 18.66757812 49.21585938 17.69140625 49.23046875 C14.95498356 48.99614518 13.33571877 48.39701383 11 47 C10.67 47.66 10.34 48.32 10 49 C6.7 49 3.4 49 0 49 C0 32.83 0 16.66 0 0 Z " fill="#2F3337" transform="translate(673,652)"/>
<path d="M0 0 C3.63 0 7.26 0 11 0 C11 6.27 11 12.54 11 19 C18.26 19 25.52 19 33 19 C33 13.06 33 7.12 33 1 C36.3 1 39.6 1 43 1 C43 16.18 43 31.36 43 47 C39.37 47 35.74 47 32 47 C32 40.73 32 34.46 32 28 C25.07 28 18.14 28 11 28 C11 34.27 11 40.54 11 47 C7.37 47 3.74 47 0 47 C0 31.49 0 15.98 0 0 Z " fill="#35383C" transform="translate(573,654)"/>
<path d="M0 0 C4.61911069 2.73340633 8.1029812 6.20596239 10.5234375 11.046875 C11.030734 16.60218748 11.28604172 21.46517736 8.8359375 26.546875 C4.39836837 31.34424704 0.30139404 34.49812154 -6.2734375 35.453125 C-12.97765677 35.66595736 -17.35047046 34.92307129 -22.6953125 30.73046875 C-27.19343914 26.47894993 -27.6952768 22.60556279 -27.9765625 16.609375 C-27.84514724 11.59274048 -27.39824454 8.19390736 -24.00390625 4.4140625 C-17.22804342 -1.65128786 -8.73140266 -3.36035055 0 0 Z " fill="#32363B" transform="translate(465.4765625,665.953125)"/>
<path d="M0 0 C0.79019531 -0.01611328 1.58039063 -0.03222656 2.39453125 -0.04882812 C7.40123099 -0.05299343 10.73946639 0.64028579 15.125 3.3125 C14.795 5.6225 14.465 7.9325 14.125 10.3125 C11.56995285 11.25881376 10.48805944 11.4680969 7.9375 10.375 C3.99085771 8.88404625 0.2990601 8.77516764 -3.875 9.3125 C-6.3939267 10.63013329 -6.3939267 10.63013329 -7.875 12.3125 C-7.91789755 14.24359581 -7.91789755 14.24359581 -6.875 16.3125 C-3.24434887 18.23896794 0.20161748 19.37735064 4.1875 20.3125 C9.05628141 21.47083678 12.81899717 23.07523416 16.5 26.5625 C18.66002605 30.2179287 18.76563907 32.11275502 18.125 36.3125 C16.58892748 40.43442324 14.65428528 43.36135915 10.8828125 45.70703125 C1.14973829 49.99746739 -6.31329133 48.48218283 -16.25 45.48046875 C-17.11625 45.09503906 -17.9825 44.70960938 -18.875 44.3125 C-20.13041557 40.54625329 -19.24561958 38.94061066 -17.875 35.3125 C-15.25916556 35.76092876 -12.98245555 36.26508253 -10.546875 37.33984375 C-7.61592155 38.40681364 -5.41943874 38.54753314 -2.3125 38.5 C-0.91837891 38.49033203 -0.91837891 38.49033203 0.50390625 38.48046875 C2.85138102 38.33003445 4.87554544 37.97410428 7.125 37.3125 C7.125 35.3325 7.125 33.3525 7.125 31.3125 C6.03960937 31.05855469 4.95421875 30.80460938 3.8359375 30.54296875 C2.39053276 30.19569618 0.94522535 29.84801836 -0.5 29.5 C-1.21285156 29.33435547 -1.92570312 29.16871094 -2.66015625 28.99804688 C-8.14117689 27.66550516 -12.91782673 26.01215047 -17.25 22.25 C-19.6407096 17.92833265 -19.8814534 14.13446331 -18.875 9.3125 C-14.31653948 1.2837276 -8.6668281 -0.03500334 0 0 Z " fill="#34373C" transform="translate(331.875,653.6875)"/>
<path d="M0 0 C3.3 0 6.6 0 10 0 C10.33 5.28 10.66 10.56 11 16 C12.65 15.01 14.3 14.02 16 13 C21.24459919 12.15261934 25.70343536 12.37487062 30.5 14.6875 C33.90988344 17.84164218 35.81604247 20.35466803 36.34057617 25.04614258 C36.3170105 26.70359497 36.3170105 26.70359497 36.29296875 28.39453125 C36.2784668 30.19760742 36.2784668 30.19760742 36.26367188 32.03710938 C36.23853516 33.28298828 36.21339844 34.52886719 36.1875 35.8125 C36.16719727 37.71032227 36.16719727 37.71032227 36.14648438 39.64648438 C36.11118318 42.76475643 36.06186819 45.88216042 36 49 C32.7 49 29.4 49 26 49 C25.95101563 47.37449219 25.90203125 45.74898437 25.8515625 44.07421875 C25.77653435 41.94529508 25.70098654 39.81638968 25.625 37.6875 C25.5940625 36.61564453 25.563125 35.54378906 25.53125 34.43945312 C25.49257813 33.41142578 25.45390625 32.38339844 25.4140625 31.32421875 C25.3826416 30.37635498 25.3512207 29.42849121 25.31884766 28.4519043 C25.1510949 25.7469731 25.1510949 25.7469731 23 23 C20.90406026 22.48526484 20.90406026 22.48526484 18.5625 22.5625 C17.78003906 22.54316406 16.99757813 22.52382813 16.19140625 22.50390625 C13.87588405 22.81345701 13.87588405 22.81345701 12.39501953 24.70581055 C10.75360883 27.40520438 10.57955767 29.06321626 10.48828125 32.203125 C10.45283203 33.1828125 10.41738281 34.1625 10.38085938 35.171875 C10.34702148 36.69554687 10.34702148 36.69554687 10.3125 38.25 C10.27833984 39.28125 10.24417969 40.3125 10.20898438 41.375 C10.12662785 43.91628699 10.06163407 46.45812601 10 49 C6.7 49 3.4 49 0 49 C0 32.83 0 16.66 0 0 Z " fill="#313438" transform="translate(395,652)"/>
<path d="M0 0 C1.27746094 -0.02835938 2.55492187 -0.05671875 3.87109375 -0.0859375 C8.94261781 0.54733217 12.03161349 2.63295672 15.375 6.4375 C17.58568744 10.04441108 17.68112713 13.00545619 17.66015625 17.13671875 C17.65693359 18.25498047 17.65371094 19.37324219 17.65039062 20.52539062 C17.63782227 22.27625977 17.63782227 22.27625977 17.625 24.0625 C17.62048828 25.24134766 17.61597656 26.42019531 17.61132812 27.63476562 C17.59953273 30.54822789 17.5830727 33.46158863 17.5625 36.375 C14.2625 36.375 10.9625 36.375 7.5625 36.375 C7.2325 35.385 6.9025 34.395 6.5625 33.375 C5.94375 33.87 5.325 34.365 4.6875 34.875 C0.27997987 36.99060966 -3.62730117 37.0896142 -8.4375 36.375 C-11.54625329 35.04535251 -13.88759711 33.47480578 -15.4375 30.375 C-15.91576094 27.2935466 -16.0104504 24.44665076 -15.4375 21.375 C-13.09034999 18.2033764 -10.16546098 16.61765366 -6.4375 15.375 C-4.20931559 15.30562938 -1.97915476 15.29042916 0.25 15.3125 C2.01923828 15.32603516 2.01923828 15.32603516 3.82421875 15.33984375 C4.72785156 15.35144531 5.63148438 15.36304688 6.5625 15.375 C5.44395414 11.64885847 5.44395414 11.64885847 2.5625 9.375 C-2.46643321 8.95015888 -6.8691468 9.01714028 -11.4375 11.375 C-12.94501963 8.98070412 -13.44312203 7.61112509 -13.375 4.75 C-12.4375 2.375 -12.4375 2.375 -10.34375 1.25 C-6.8036294 0.18415724 -3.69607594 0.03722131 0 0 Z " fill="#383B3F" transform="translate(516.4375,664.625)"/>
<path d="M0 0 C3.3 0 6.6 0 10 0 C10.04898438 1.53011719 10.09796875 3.06023438 10.1484375 4.63671875 C10.2234866 6.65366344 10.29903351 8.67058965 10.375 10.6875 C10.4059375 11.69490234 10.436875 12.70230469 10.46875 13.74023438 C10.50742187 14.71669922 10.54609375 15.69316406 10.5859375 16.69921875 C10.6173584 17.59471436 10.6487793 18.49020996 10.68115234 19.4128418 C11.02661113 22.21592507 11.84681468 24.43264531 13 27 C14.62818946 26.77169299 16.2526349 26.51656424 17.875 26.25 C18.77992188 26.11078125 19.68484375 25.9715625 20.6171875 25.828125 C23.09808607 25.2399422 23.09808607 25.2399422 24.12304688 23.25976562 C25.10529234 20.72867877 25.31493796 18.72502914 25.4140625 16.015625 C25.45273437 15.08105469 25.49140625 14.14648438 25.53125 13.18359375 C25.5621875 12.21550781 25.593125 11.24742187 25.625 10.25 C25.66367187 9.26644531 25.70234375 8.28289063 25.7421875 7.26953125 C25.8362797 4.84665711 25.91922152 2.42335455 26 0 C29.3 0 32.6 0 36 0 C36 11.88 36 23.76 36 36 C32.7 36 29.4 36 26 36 C25.67 35.01 25.34 34.02 25 33 C24.21625 33.495 23.4325 33.99 22.625 34.5 C17.93488144 36.44073872 14.01138999 36.73337414 9 36 C4.45890467 33.77073502 2.21637667 31.49610115 0 27 C-0.34057617 23.95385742 -0.34057617 23.95385742 -0.29296875 20.60546875 C-0.28330078 19.40341797 -0.27363281 18.20136719 -0.26367188 16.96289062 C-0.23853516 15.71701172 -0.21339844 14.47113281 -0.1875 13.1875 C-0.17396484 11.92228516 -0.16042969 10.65707031 -0.14648438 9.35351562 C-0.11118318 6.23524357 -0.06186819 3.11783958 0 0 Z " fill="#34373B" transform="translate(627,665)"/>
<path d="M0 0 C2.86851021 1.6576227 4.90951412 3.26783897 6.5 6.25 C6.5 6.91 6.5 7.57 6.5 8.25 C3.75 9.875 3.75 9.875 0.5 11.25 C-1.6875 10.5625 -1.6875 10.5625 -3.5 9.25 C-7.01253146 6.90831236 -8.36469356 6.75376323 -12.5 7.25 C-15.52928108 8.52324837 -15.52928108 8.52324837 -17.5 11.25 C-18.19040224 15.52578657 -18.0219303 20.16764578 -16.5 24.25 C-12.90735548 25.44754817 -10.27282526 25.58094958 -6.5 25.25 C-4.05901182 23.39579161 -4.05901182 23.39579161 -2.5 21.25 C-1.3553125 21.7140625 -1.3553125 21.7140625 -0.1875 22.1875 C1.68789677 22.92893593 3.58684652 23.61228217 5.5 24.25 C5.5 27.0063971 5.03943086 28.68935557 3.109375 30.6953125 C-2.09039631 34.51867376 -7.02201922 35.00267704 -13.37109375 34.73046875 C-18.7710038 33.90126908 -22.31791697 31.82128497 -25.8359375 27.67578125 C-28.72562937 23.27976064 -29.73166045 18.47625969 -29.5 13.25 C-27.57577548 6.83591826 -24.31791263 3.19570158 -18.875 -0.5625 C-12.57409193 -2.77948617 -6.11352361 -2.85372966 0 0 Z " fill="#323539" transform="translate(382.5,666.75)"/>
<path d="M0 0 C3.08786988 1.43540436 5.69934554 3.16966948 8.4375 5.1875 C14.33590956 9.38427571 20.57542386 12.68701324 27 16 C26.13587693 20.30222975 24.49529336 22.26455302 21 25 C8.73699579 27.25238853 -7.3725181 17.37095413 -17.4765625 10.8125 C-18.30929687 10.214375 -19.14203125 9.61625 -20 9 C-20 8.67 -20 8.34 -20 8 C-19.05640625 7.85304688 -19.05640625 7.85304688 -18.09375 7.703125 C-11.37462166 6.52930137 -4.94743707 4.94743707 0 0 Z " fill="#057B76" transform="translate(514,574)"/>
<path d="M0 0 C3.63 0 7.26 0 11 0 C11 16.17 11 32.34 11 49 C7.37 49 3.74 49 0 49 C0 32.83 0 16.66 0 0 Z " fill="#3E4144" transform="translate(483,652)"/>
<path d="M0 0 C3.3 0 6.6 0 10 0 C10.33 0.99 10.66 1.98 11 3 C11.70125 2.505 12.4025 2.01 13.125 1.5 C16.37119719 -0.1936681 18.39340156 -0.25162315 22 0 C22 2.97 22 5.94 22 9 C19.98177083 9.42317708 17.96354167 9.84635417 15.9453125 10.26953125 C13.62953451 10.92308838 13.62953451 10.92308838 12 14 C11.6336141 16.41713479 11.6336141 16.41713479 11.5859375 19.10546875 C11.52792969 20.57983398 11.52792969 20.57983398 11.46875 22.08398438 C11.4378125 23.10814453 11.406875 24.13230469 11.375 25.1875 C11.31699219 26.74114258 11.31699219 26.74114258 11.2578125 28.32617188 C11.16352131 30.88382027 11.08067082 33.44188578 11 36 C7.37 36 3.74 36 0 36 C0 24.12 0 12.24 0 0 Z " fill="#3A3C40" transform="translate(543,665)"/>
<path d="M0 0 C1.10287024 3.29001256 0.90614065 5.11781591 -0.265625 8.359375 C-0.57371094 9.21708496 -0.88179687 10.07479492 -1.19921875 10.95849609 C-1.54597656 11.87969238 -1.89273438 12.80088867 -2.25 13.75 C-2.77787109 15.18013428 -2.77787109 15.18013428 -3.31640625 16.63916016 C-7.61556249 28.02047454 -12.77234188 39.02133966 -18 50 C-19.98 49.67 -21.96 49.34 -24 49 C-22.29815969 43.29883496 -19.76757674 38.05987871 -17.25 32.6875 C-13.6836142 25.02935759 -10.47020733 17.41472959 -8.15332031 9.2800293 C-6.54542723 4.12557977 -4.56299923 2.48317914 0 0 Z " fill="#1EA5A2" transform="translate(820,610)"/>
<path d="M0 0 C2.09375 0.69921875 2.09375 0.69921875 4.65625 2.76171875 C6.51269415 6.55532201 6.94832596 9.55201189 6.09375 13.69921875 C4.30011089 16.50925335 3.07494065 18.20862343 0.09375 19.69921875 C-6.17144337 20.27932925 -6.17144337 20.27932925 -9.28125 17.82421875 C-12.07776396 14.16723896 -12.31863807 11.49064742 -12.23828125 6.96875 C-11.90625 4.69921875 -11.90625 4.69921875 -9.96875 1.57421875 C-6.24275343 -0.70700364 -4.22058316 -0.76673927 0 0 Z " fill="#F5F6F7" transform="translate(694.90625,673.30078125)"/>
<path d="M0 0 C2.69990662 1.79993774 4.5418865 3.083773 6 6 C6.37712577 10.99691647 6.09290612 13.99067725 3 18 C-0.76499581 20.5099972 -2.54293606 20.61476744 -7 20 C-10.01066181 17.43773463 -11.59121046 15.83955295 -12.4453125 11.99609375 C-12.65541713 8.30525566 -12.10705321 6.16771669 -10.125 3.0625 C-6.77678373 -0.18723932 -4.62344486 -0.45327891 0 0 Z " fill="#F8F8F8" transform="translate(460,673)"/>
<path d="M0 0 C0.99 0.33 1.98 0.66 3 1 C0.1324855 7.85350979 -3.2788687 11.45919101 -9.125 15.9375 C-10.6537757 17.14923725 -12.1811247 18.36277669 -13.70703125 19.578125 C-14.4438916 20.16013672 -15.18075195 20.74214844 -15.93994141 21.34179688 C-19.43793533 24.1574374 -22.7246543 27.18052071 -26.01953125 30.23046875 C-27.93847551 31.94502842 -29.91840797 33.48909162 -32 35 C-32.66 34.01 -33.32 33.02 -34 32 C-35.65 32.66 -37.3 33.32 -39 34 C-31.22279804 24.38082916 -21.65454488 16.66607493 -12 9 C-11.46987305 8.57557617 -10.93974609 8.15115234 -10.39355469 7.71386719 C-8.77164089 6.42189919 -7.13809834 5.14635991 -5.5 3.875 C-4.5203125 3.10929688 -3.540625 2.34359375 -2.53125 1.5546875 C-1.6959375 1.04164063 -0.860625 0.52859375 0 0 Z " fill="#18A4A7" transform="translate(320,249)"/>
<path d="M0 0 C0.90105469 0.02707031 1.80210937 0.05414062 2.73046875 0.08203125 C3.76107422 0.13423828 3.76107422 0.13423828 4.8125 0.1875 C4.89326963 2.64648655 4.95287143 5.10283742 5 7.5625 C5.03770508 8.61050781 5.03770508 8.61050781 5.07617188 9.6796875 C5.10546875 11.7109375 5.10546875 11.7109375 4.8125 15.1875 C1.72361478 17.24675681 1.10314073 17.4265374 -2.375 17.3125 C-3.633125 17.27125 -4.89125 17.23 -6.1875 17.1875 C-6.5175 16.1975 -6.8475 15.2075 -7.1875 14.1875 C-3.8875 14.1875 -0.5875 14.1875 2.8125 14.1875 C2.8125 13.1975 2.8125 12.2075 2.8125 11.1875 C1.8225 11.6825 1.8225 11.6825 0.8125 12.1875 C-4.44215839 12.63470497 -4.44215839 12.63470497 -7.0625 11.0625 C-8.71604531 8.30659116 -8.58115568 6.33674548 -8.1875 3.1875 C-5.83934143 -0.09380302 -3.89660245 -0.15181568 0 0 Z " fill="#545454" transform="translate(519.1875,719.8125)"/>
<path d="M0 0 C2.4375 0.6875 2.4375 0.6875 4.4375 1.6875 C4.4375 1.0275 4.4375 0.3675 4.4375 -0.3125 C5.0975 -0.3125 5.7575 -0.3125 6.4375 -0.3125 C6.51847324 1.95774968 6.57667704 4.22882075 6.625 6.5 C6.65980469 7.76457031 6.69460938 9.02914062 6.73046875 10.33203125 C6.4375 13.6875 6.4375 13.6875 5.1484375 15.61328125 C2.26756767 17.42204656 -0.27666361 17.04595488 -3.5625 16.6875 C-4.2225 15.6975 -4.8825 14.7075 -5.5625 13.6875 C-2.2625 13.6875 1.0375 13.6875 4.4375 13.6875 C4.4375 12.6975 4.4375 11.7075 4.4375 10.6875 C3.4475 11.1825 3.4475 11.1825 2.4375 11.6875 C-0.5 12 -0.5 12 -3.5625 11.6875 C-5.5 10.0625 -5.5 10.0625 -6.5625 7.6875 C-6.4375 4.5625 -6.4375 4.5625 -5.5625 1.6875 C-2.5625 -0.3125 -2.5625 -0.3125 0 0 Z " fill="#464646" transform="translate(429.5625,720.3125)"/>
<path d="M0 0 C5.05110122 2.23003732 8.40423774 6.07475116 12.25 9.9375 C13.36761719 11.03094727 13.36761719 11.03094727 14.5078125 12.14648438 C15.21164062 12.84966797 15.91546875 13.55285156 16.640625 14.27734375 C17.28547852 14.91921631 17.93033203 15.56108887 18.59472656 16.22241211 C20 18 20 18 20 21 C15.03302169 20.95478693 12.65534433 20.07530821 9.03515625 16.62109375 C7.69527214 15.24160715 6.37131458 13.84649862 5.0625 12.4375 C4.37865234 11.72658203 3.69480469 11.01566406 2.99023438 10.28320312 C1.31239062 8.53496033 -0.3498154 6.77430649 -2 5 C-1.34 3.35 -0.68 1.7 0 0 Z " fill="#103576" transform="translate(276,729)"/>
<path d="M0 0 C0.66 0 1.32 0 2 0 C1.4671171 5.91015579 -0.984008 10.63114491 -3.5625 15.875 C-3.98724609 16.75414062 -4.41199219 17.63328125 -4.84960938 18.5390625 C-5.89296559 20.69611356 -6.94321884 22.84950288 -8 25 C-9.98 24.67 -11.96 24.34 -14 24 C-11.56159721 15.79809969 -8.67760318 7.59474861 -2 2 C-1.34 1.34 -0.68 0.68 0 0 Z " fill="#19979F" transform="translate(810,635)"/>
<path d="M0 0 C3.69790046 1.23263349 3.9354846 2.20052451 5.6875 5.5625 C6.12449219 6.38878906 6.56148438 7.21507812 7.01171875 8.06640625 C7.33785156 8.70449219 7.66398437 9.34257813 8 10 C9.808975 7.62926353 11.46107371 5.27345962 13.0625 2.75 C13.701875 1.8425 14.34125 0.935 15 0 C15.66 0 16.32 0 17 0 C17 5.28 17 10.56 17 16 C16.34 16 15.68 16 15 16 C14.67 13.03 14.34 10.06 14 7 C12.68 9.64 11.36 12.28 10 15 C5.47653527 12.73826764 4.94171334 11.46594067 3 7 C2.67 10.3 2.34 13.6 2 17 C1.34 17 0.68 17 0 17 C0 11.39 0 5.78 0 0 Z " fill="#565756" transform="translate(447,716)"/>
<path d="M0 0 C2.0078125 0.1328125 2.0078125 0.1328125 5.0078125 1.1328125 C5.3378125 0.8028125 5.6678125 0.4728125 6.0078125 0.1328125 C8.75504603 -0.15636998 10.37604232 -0.32271919 12.66015625 1.32421875 C14.47351613 3.75780027 14.31216273 5.32115669 14.1953125 8.3203125 C14.16824219 9.22136719 14.14117188 10.12242187 14.11328125 11.05078125 C14.07847656 11.73785156 14.04367187 12.42492187 14.0078125 13.1328125 C13.0178125 13.1328125 12.0278125 13.1328125 11.0078125 13.1328125 C10.5128125 8.1828125 10.5128125 8.1828125 10.0078125 3.1328125 C8.6878125 3.4628125 7.3678125 3.7928125 6.0078125 4.1328125 C5.6778125 7.1028125 5.3478125 10.0728125 5.0078125 13.1328125 C4.3478125 13.1328125 3.6878125 13.1328125 3.0078125 13.1328125 C2.6778125 10.1628125 2.3478125 7.1928125 2.0078125 4.1328125 C0.6878125 3.8028125 -0.6321875 3.4728125 -1.9921875 3.1328125 C-3.57491351 4.71553851 -3.33954497 6.51315253 -3.5546875 8.6953125 C-3.63847656 9.52160156 -3.72226562 10.34789062 -3.80859375 11.19921875 C-3.86917969 11.83730469 -3.92976562 12.47539063 -3.9921875 13.1328125 C-4.9821875 13.1328125 -5.9721875 13.1328125 -6.9921875 13.1328125 C-7.01905303 11.15371852 -7.03852125 9.17452279 -7.0546875 7.1953125 C-7.06628906 6.09316406 -7.07789063 4.99101563 -7.08984375 3.85546875 C-6.90983249 -1.16324516 -4.43849596 0.01637821 0 0 Z " fill="#626364" transform="translate(682.9921875,719.8671875)"/>
<path d="M0 0 C3.3 0 6.6 0 10 0 C10 0.66 10 1.32 10 2 C10.99 1.34 11.98 0.68 13 0 C16.0625 -0.25 16.0625 -0.25 19 0 C21 2 21 2 21.1953125 4.6015625 C21.17210937 5.59929688 21.14890625 6.59703125 21.125 7.625 C21.10695313 8.62789062 21.08890625 9.63078125 21.0703125 10.6640625 C21.04710937 11.43492187 21.02390625 12.20578125 21 13 C20.34 13 19.68 13 19 13 C18.67 10.03 18.34 7.06 18 4 C16.68 3.67 15.36 3.34 14 3 C12.41727399 4.58272601 12.65264253 6.38034003 12.4375 8.5625 C12.35371094 9.38878906 12.26992188 10.21507812 12.18359375 11.06640625 C12.12300781 11.70449219 12.06242188 12.34257813 12 13 C11.34 13 10.68 13 10 13 C9.67 10.03 9.34 7.06 9 4 C7.35 3.67 5.7 3.34 4 3 C3.67 6.3 3.34 9.6 3 13 C2.01 13 1.02 13 0 13 C0 8.71 0 4.42 0 0 Z " fill="#5C5C5C" transform="translate(542,720)"/>
<path d="M0 0 C3.0625 0.375 3.0625 0.375 4.9375 2.125 C6.0625 4.375 6.0625 4.375 6.0625 8.375 C3.0925 8.375 0.1225 8.375 -2.9375 8.375 C-2.9375 9.035 -2.9375 9.695 -2.9375 10.375 C-0.2975 10.375 2.3425 10.375 5.0625 10.375 C4.0725 11.86 4.0725 11.86 3.0625 13.375 C0.125 13.8125 0.125 13.8125 -2.9375 13.375 C-4.875 11.8125 -4.875 11.8125 -5.9375 9.375 C-5.48882939 0.70070162 -5.48882939 0.70070162 0 0 Z " fill="#676765" transform="translate(666.9375,719.625)"/>
<path d="M0 0 C1.8125 1.1875 1.8125 1.1875 3 3 C3.1875 5.6875 3.1875 5.6875 3 8 C0.03 8 -2.94 8 -6 8 C-6 8.66 -6 9.32 -6 10 C-3.36 10 -0.72 10 2 10 C2 10.66 2 11.32 2 12 C-4.25925926 13.44444444 -4.25925926 13.44444444 -7.5 11.5 C-9 9 -9 9 -8.9375 5.375 C-7.52971909 0.30698873 -4.96041172 -0.62005147 0 0 Z " fill="#626262" transform="translate(357,720)"/>
<path d="M0 0 C2.5 0.5625 2.5 0.5625 4.8125 2.875 C6.5 5.5625 6.5 5.5625 6.5 8.5625 C3.2 8.5625 -0.1 8.5625 -3.5 8.5625 C-3.17 9.2225 -2.84 9.8825 -2.5 10.5625 C-0.19 10.5625 2.12 10.5625 4.5 10.5625 C4.5 11.2225 4.5 11.8825 4.5 12.5625 C1.67116253 13.97691874 -0.37376745 13.88150332 -3.5 13.5625 C-5.8151023 11.47890793 -6.40276165 10.11814772 -6.9375 7.0625 C-6.20592252 2.88205724 -4.10654661 0.92397299 0 0 Z " fill="#515151" transform="translate(533.5,719.4375)"/>
<path d="M0 0 C5.48076923 -0.36538462 5.48076923 -0.36538462 7.6875 1.1875 C9.45312631 3.62574585 9.30348915 5.21044507 9.1875 8.1875 C9.16042969 9.08855469 9.13335937 9.98960937 9.10546875 10.91796875 C9.07066406 11.60503906 9.03585937 12.29210937 9 13 C7.54207116 13.05399736 6.08357288 13.09279177 4.625 13.125 C3.81289063 13.14820313 3.00078125 13.17140625 2.1640625 13.1953125 C0 13 0 13 -2 11 C-1.625 8.375 -1.625 8.375 -1 6 C2.465 5.505 2.465 5.505 6 5 C5.67 4.34 5.34 3.68 5 3 C3.02 3 1.04 3 -1 3 C-0.67 2.01 -0.34 1.02 0 0 Z " fill="#636464" transform="translate(364,720)"/>
<path d="M0 0 C1.65322266 0.01740234 1.65322266 0.01740234 3.33984375 0.03515625 C4.99693359 0.04869141 4.99693359 0.04869141 6.6875 0.0625 C7.54214844 0.07410156 8.39679687 0.08570313 9.27734375 0.09765625 C8.79515197 5.52231378 8.79515197 5.52231378 6.58984375 7.97265625 C3.58480662 9.43456621 1.58056553 9.51934414 -1.72265625 9.09765625 C-3.66015625 7.91015625 -3.66015625 7.91015625 -4.72265625 6.09765625 C-4.15612441 0.14907189 -4.15612441 0.14907189 0 0 Z " fill="#ECEBEB" transform="translate(514.72265625,685.90234375)"/>
<path d="M0 0 C3.54573402 0.79779015 4.57950921 2.57506988 6.5 5.5625 C6.5 6.2225 6.5 6.8825 6.5 7.5625 C3.2 7.5625 -0.1 7.5625 -3.5 7.5625 C-3.17 8.2225 -2.84 8.8825 -2.5 9.5625 C-0.17843403 9.96979228 2.1568787 10.30688677 4.5 10.5625 C3.51 12.0475 3.51 12.0475 2.5 13.5625 C0.125 14 0.125 14 -2.5 13.5625 C-5.23251347 11.56850369 -6.33247946 10.4001027 -7 7.0625 C-6.16827471 2.90387353 -4.12088752 0.92719969 0 0 Z " fill="#5A5A59" transform="translate(572.5,719.4375)"/>
<path d="M0 0 C5.48076923 -0.36538462 5.48076923 -0.36538462 7.6875 1.1875 C9.45312631 3.62574585 9.30348915 5.21044507 9.1875 8.1875 C9.16042969 9.08855469 9.13335937 9.98960937 9.10546875 10.91796875 C9.07066406 11.60503906 9.03585937 12.29210937 9 13 C7.54207116 13.05399736 6.08357288 13.09279177 4.625 13.125 C3.81289063 13.14820313 3.00078125 13.17140625 2.1640625 13.1953125 C0 13 0 13 -2 11 C-1.625 8.375 -1.625 8.375 -1 6 C1.31 6 3.62 6 6 6 C5.67 4.68 5.34 3.36 5 2 C3.02 2 1.04 2 -1 2 C-0.67 1.34 -0.34 0.68 0 0 Z " fill="#666767" transform="translate(470,720)"/>
<path d="M0 0 C3.375 -0.125 3.375 -0.125 7 0 C9 2 9 2 9.1953125 4.3828125 C9.17210937 5.28773438 9.14890625 6.19265625 9.125 7.125 C9.10695313 8.03507813 9.08890625 8.94515625 9.0703125 9.8828125 C9.04710937 10.58148437 9.02390625 11.28015625 9 12 C1.25 13.125 1.25 13.125 -1 12 C-1.042721 10.33388095 -1.04063832 8.66617115 -1 7 C0 6 0 6 3.5625 5.9375 C4.696875 5.958125 5.83125 5.97875 7 6 C6.67 5.01 6.34 4.02 6 3 C3.03 2.505 3.03 2.505 0 2 C0 1.34 0 0.68 0 0 Z " fill="#575858" transform="translate(499,720)"/>
<path d="M0 0 C3 0.1875 3 0.1875 5 1.1875 C5 1.8475 5 2.5075 5 3.1875 C2.69 3.1875 0.38 3.1875 -2 3.1875 C-2 4.1775 -2 5.1675 -2 6.1875 C-1.05125 6.496875 -0.1025 6.80625 0.875 7.125 C4 8.1875 4 8.1875 6 9.1875 C6.36448598 13.6828271 6.36448598 13.6828271 4.78125 15.875 C3 17.1875 3 17.1875 0.73828125 17.26171875 C-0.06222656 17.13410156 -0.86273437 17.00648438 -1.6875 16.875 C-2.49574219 16.75511719 -3.30398438 16.63523437 -4.13671875 16.51171875 C-4.75160156 16.40472656 -5.36648438 16.29773438 -6 16.1875 C-6 15.5275 -6 14.8675 -6 14.1875 C-3.36 14.1875 -0.72 14.1875 2 14.1875 C2.33 13.1975 2.66 12.2075 3 11.1875 C-1.455 9.2075 -1.455 9.2075 -6 7.1875 C-4.91362126 0.30710133 -4.91362126 0.30710133 0 0 Z " fill="#5B5B5B" transform="translate(619,715.8125)"/>
<path d="M0 0 C4.39158329 1.4638611 4.87947433 3.97831338 7 8 C8.32 5.36 9.64 2.72 11 0 C12.15846037 4.63384149 11.57935467 5.84599223 9.75 10.125 C9.31171875 11.17945313 8.8734375 12.23390625 8.421875 13.3203125 C7 16 7 16 4 18 C1.8125 17.625 1.8125 17.625 0 17 C0 16.34 0 15.68 0 15 C1.65 15 3.3 15 5 15 C4.72285156 14.25234375 4.44570313 13.5046875 4.16015625 12.734375 C3.79792969 11.74953125 3.43570313 10.7646875 3.0625 9.75 C2.70285156 8.77546875 2.34320312 7.8009375 1.97265625 6.796875 C1.18620345 4.53542839 0.52748399 2.33203448 0 0 Z " fill="#515151" transform="translate(626,720)"/>
<path d="M0 0 C0.99 0 1.98 0 3 0 C3 4.62 3 9.24 3 14 C5.64 14 8.28 14 11 14 C11.33 14.99 11.66 15.98 12 17 C8.04 17 4.08 17 0 17 C0 11.39 0 5.78 0 0 Z " fill="#707173" transform="translate(335,716)"/>
<path d="M0 0 C1.60875 -0.04125 3.2175 -0.0825 4.875 -0.125 C5.77992188 -0.14820313 6.68484375 -0.17140625 7.6171875 -0.1953125 C10 0 10 0 12 2 C12.1953125 4.3828125 12.1953125 4.3828125 12.125 7.125 C12.10695313 8.03507813 12.08890625 8.94515625 12.0703125 9.8828125 C12.04710937 10.58148437 12.02390625 11.28015625 12 12 C11.34 12 10.68 12 10 12 C9.67 9.36 9.34 6.72 9 4 C7.35 3.67 5.7 3.34 4 3 C3.67 6.3 3.34 9.6 3 13 C2.01 13 1.02 13 0 13 C0 8.71 0 4.42 0 0 Z " fill="#6D6D6D" transform="translate(408,720)"/>
<path d="M0 0 C0.66 1.32 1.32 2.64 2 4 C-2.7907489 8.95044053 -2.7907489 8.95044053 -6.3828125 9.09765625 C-7.28773438 9.08605469 -8.19265625 9.07445312 -9.125 9.0625 C-10.03507812 9.05347656 -10.94515625 9.04445313 -11.8828125 9.03515625 C-12.58148438 9.02355469 -13.28015625 9.01195312 -14 9 C-13.01 8.67 -12.02 8.34 -11 8 C-11 5.69 -11 3.38 -11 1 C-10.34 1.33 -9.68 1.66 -9 2 C-4.94857881 2.25860135 -3.45662331 2.30441554 0 0 Z " fill="#424347" transform="translate(522,692)"/>
<path d="M0 0 C3.98175544 2.10148204 6.35039045 4.36905358 9 8 C7 10 7 10 4 11 C2.02734375 9.671875 2.02734375 9.671875 -0.0625 7.75 C-0.75472656 7.12609375 -1.44695312 6.5021875 -2.16015625 5.859375 C-4 4 -4 4 -6 1 C-3.03 1.495 -3.03 1.495 0 2 C0 1.34 0 0.68 0 0 Z " fill="#1F4483" transform="translate(296,748)"/>
<path d="M0 0 C1.32 0 2.64 0 4 0 C4.845625 -0.0825 5.69125 -0.165 6.5625 -0.25 C9 0 9 0 10.8125 1.4375 C12.57634638 5.24369483 12.23816637 8.87178296 12 13 C11.01 13 10.02 13 9 13 C8.67 9.37 8.34 5.74 8 2 C6.35 2.66 4.7 3.32 3 4 C2.67 6.97 2.34 9.94 2 13 C1.34 13 0.68 13 0 13 C0 8.71 0 4.42 0 0 Z " fill="#59595A" transform="translate(582,720)"/>
<path d="M0 0 C0.99 0.33 1.98 0.66 3 1 C3.99 0.79375 4.98 0.5875 6 0.375 C9 0 9 0 10.67578125 1.15234375 C12.44139403 3.61586837 12.30433131 5.18882975 12.1875 8.1875 C12.16042969 9.08855469 12.13335937 9.98960937 12.10546875 10.91796875 C12.07066406 11.60503906 12.03585937 12.29210937 12 13 C11.01 13 10.02 13 9 13 C8.67 9.7 8.34 6.4 8 3 C6.35 3.33 4.7 3.66 3 4 C2.67 6.97 2.34 9.94 2 13 C1.34 13 0.68 13 0 13 C0 8.71 0 4.42 0 0 Z " fill="#5D5D5D" transform="translate(483,720)"/>
<path d="M0 0 C2 2 2 2 2.1953125 4.3828125 C2.17210937 5.28773438 2.14890625 6.19265625 2.125 7.125 C2.10695313 8.03507813 2.08890625 8.94515625 2.0703125 9.8828125 C2.04710937 10.58148437 2.02390625 11.28015625 2 12 C1.01 12 0.02 12 -1 12 C-1.33 8.7 -1.66 5.4 -2 2 C-3.65 2.33 -5.3 2.66 -7 3 C-7.33 5.64 -7.66 8.28 -8 11 C-8.66 11 -9.32 11 -10 11 C-10 7.37 -10 3.74 -10 0 C-5.66955459 -0.86608908 -3.99392372 -1.18738273 0 0 Z " fill="#5C5D5D" transform="translate(396,721)"/>
<path d="M0 0 C0.9375 2.625 0.9375 2.625 1 6 C-1.0543858 8.38782014 -3.43042604 10.19296794 -6 12 C-6.66 11.01 -7.32 10.02 -8 9 C-9.65 9.66 -11.3 10.32 -13 11 C-4.00842697 0 -4.00842697 0 0 0 Z " fill="#2C7C9C" transform="translate(294,272)"/>
<path d="M0 0 C1.4540625 0.0309375 1.4540625 0.0309375 2.9375 0.0625 C3.2675 1.0525 3.5975 2.0425 3.9375 3.0625 C0.9675 2.5675 0.9675 2.5675 -2.0625 2.0625 C-2.0625 3.0525 -2.0625 4.0425 -2.0625 5.0625 C-1.093125 5.31 -0.12375 5.5575 0.875 5.8125 C1.885625 6.225 2.89625 6.6375 3.9375 7.0625 C4.8125 9.1875 4.8125 9.1875 4.9375 11.0625 C1.0871895 13.62937367 -0.64819763 12.89538724 -5.0625 12.0625 C-5.0625 11.4025 -5.0625 10.7425 -5.0625 10.0625 C-2.7525 10.3925 -0.4425 10.7225 1.9375 11.0625 C1.9375 10.0725 1.9375 9.0825 1.9375 8.0625 C-1.0325 7.5675 -1.0325 7.5675 -4.0625 7.0625 C-4.10504356 5.06295254 -4.10330783 3.06208364 -4.0625 1.0625 C-3.0625 0.0625 -3.0625 0.0625 0 0 Z " fill="#686767" transform="translate(645.0625,719.9375)"/>
<path d="M0 0 C0.66 0 1.32 0 2 0 C1.45761381 4.55604402 0.54195877 8.14323496 -2 12 C-5.1875 13.375 -5.1875 13.375 -8 14 C-7.74473736 9.66053508 -7.45510245 7.52511821 -4.5625 4.1875 C-3.716875 3.465625 -2.87125 2.74375 -2 2 C-1.34 1.34 -0.68 0.68 0 0 Z " fill="#129C9F" transform="translate(810,635)"/>
<path d="M0 0 C2.5625 0.1875 2.5625 0.1875 4.5625 2.1875 C4.6875 4.8125 4.6875 4.8125 4.5625 7.1875 C1.1875 7.8125 1.1875 7.8125 -2.4375 8.1875 C-3.0975 7.5275 -3.7575 6.8675 -4.4375 6.1875 C-3.71780303 0.28598485 -3.71780303 0.28598485 0 0 Z " fill="#EFEEEE" transform="translate(517.4375,721.8125)"/>
<path d="M0 0 C3.3 0 6.6 0 10 0 C9.67 1.32 9.34 2.64 9 4 C7.35 3.67 5.7 3.34 4 3 C3.67 6.3 3.34 9.6 3 13 C2.01 13 1.02 13 0 13 C0 8.71 0 4.42 0 0 Z " fill="#6A6B6B" transform="translate(542,720)"/>
<path d="M0 0 C0.99 0 1.98 0 3 0 C3 5.94 3 11.88 3 18 C2.01 18 1.02 18 0 18 C0 12.06 0 6.12 0 0 Z " fill="#848585" transform="translate(402,715)"/>
<path d="M0 0 C2.5 0.125 2.5 0.125 3.5 1.125 C3.625 4.125 3.625 4.125 3.5 7.125 C2.5 8.125 2.5 8.125 0 8.25 C-2.5 8.125 -2.5 8.125 -3.5 7.125 C-3.625 4.125 -3.625 4.125 -3.5 1.125 C-2.5 0.125 -2.5 0.125 0 0 Z " fill="#F0F0F0" transform="translate(429.5,721.875)"/>
<path d="M0 0 C0.99 0 1.98 0 3 0 C3 0.99 3 1.98 3 3 C3.99 3 4.98 3 6 3 C6 3.66 6 4.32 6 5 C5.01 5 4.02 5 3 5 C3 7.97 3 10.94 3 14 C4.32 14 5.64 14 7 14 C7 14.66 7 15.32 7 16 C2.125 15.125 2.125 15.125 1 14 C0.92820036 12.48071962 0.91607993 10.95832518 0.9375 9.4375 C0.94652344 8.61121094 0.95554687 7.78492188 0.96484375 6.93359375 C0.97644531 6.29550781 0.98804688 5.65742187 1 5 C0.34 5 -0.32 5 -1 5 C-0.67 3.35 -0.34 1.7 0 0 Z " fill="#616262" transform="translate(597,717)"/>
<path d="M0 0 C0.763125 0.20625 1.52625 0.4125 2.3125 0.625 C2.3125 0.955 2.3125 1.285 2.3125 1.625 C0.6625 1.955 -0.9875 2.285 -2.6875 2.625 C-2.6875 4.605 -2.6875 6.585 -2.6875 8.625 C-0.7075 8.625 1.2725 8.625 3.3125 8.625 C3.6425 9.285 3.9725 9.945 4.3125 10.625 C1.48366253 12.03941874 -0.56126745 11.94400332 -3.6875 11.625 C-5.625 10 -5.625 10 -6.6875 7.625 C-6.5625 4.5 -6.5625 4.5 -5.6875 1.625 C-2.6875 -0.375 -2.6875 -0.375 0 0 Z " fill="#616161" transform="translate(429.6875,720.375)"/>
<path d="M0 0 C0.99 0.103125 1.98 0.20625 3 0.3125 C3.66 1.3025 4.32 2.2925 5 3.3125 C4.67 4.3025 4.34 5.2925 4 6.3125 C1.36 6.3125 -1.28 6.3125 -4 6.3125 C-4.625 4.4375 -4.625 4.4375 -5 2.3125 C-3 0.3125 -3 0.3125 0 0 Z " fill="#5F5F5E" transform="translate(667,719.6875)"/>
<path d="M0 0 C2.875 -0.1875 2.875 -0.1875 6 0 C6.66 0.99 7.32 1.98 8 3 C7.5390625 5.04296875 7.5390625 5.04296875 6.625 7.1875 C6.32851563 7.90292969 6.03203125 8.61835937 5.7265625 9.35546875 C5.48679687 9.89816406 5.24703125 10.44085937 5 11 C3.68 11 2.36 11 1 11 C1.185625 10.38125 1.37125 9.7625 1.5625 9.125 C2.23686176 6.95839822 2.23686176 6.95839822 1 5 C2.65 5 4.3 5 6 5 C5.67 4.34 5.34 3.68 5 3 C3.02 3 1.04 3 -1 3 C-0.67 2.01 -0.34 1.02 0 0 Z " fill="#737373" transform="translate(364,720)"/>
<path d="M0 0 C0.375 2.75 0.375 2.75 0 6 C-3 8.375 -3 8.375 -6 10 C-6.66 8.02 -7.32 6.04 -8 4 C-5.57415142 1.34311822 -3.76063134 0 0 0 Z " fill="#1C97A5" transform="translate(301,267)"/>
<path d="M0 0 C0.66 0 1.32 0 2 0 C2 0.66 2 1.32 2 2 C2.99 2 3.98 2 5 2 C5 2.66 5 3.32 5 4 C4.01 4 3.02 4 2 4 C2.33 6.64 2.66 9.28 3 12 C3.99 12.33 4.98 12.66 6 13 C6 13.66 6 14.32 6 15 C1.125 14.125 1.125 14.125 0 13 C-0.07179964 11.48071962 -0.08392007 9.95832518 -0.0625 8.4375 C-0.05347656 7.61121094 -0.04445313 6.78492188 -0.03515625 5.93359375 C-0.02355469 5.29550781 -0.01195312 4.65742187 0 4 C-0.66 4 -1.32 4 -2 4 C-2 3.34 -2 2.68 -2 2 C-1.34 2 -0.68 2 0 2 C0 1.34 0 0.68 0 0 Z " fill="#565555" transform="translate(653,718)"/>
<path d="M0 0 C2.64 0.99 5.28 1.98 8 3 C7.34 4.32 6.68 5.64 6 7 C3.36 6.67 0.72 6.34 -2 6 C-1.34 4.02 -0.68 2.04 0 0 Z " fill="#E7E6E6" transform="translate(615,724)"/>
<path d="M0 0 C3.3 0.33 6.6 0.66 10 1 C10 2.32 10 3.64 10 5 C5.70700357 6.26264601 3.12168689 5.62950412 -1 4 C-0.67 2.68 -0.34 1.36 0 0 Z " fill="#EEEDEC" transform="translate(617,718)"/>
<path d="M0 0 C0.99 1.485 0.99 1.485 2 3 C4.43693311 3.36416047 4.43693311 3.36416047 7.125 3.1875 C8.49011719 3.14689453 8.49011719 3.14689453 9.8828125 3.10546875 C10.58148437 3.07066406 11.28015625 3.03585937 12 3 C12.33 2.34 12.66 1.68 13 1 C13 1.99 13 2.98 13 4 C9.7 4 6.4 4 3 4 C3.33 4.66 3.66 5.32 4 6 C6.31 6 8.62 6 11 6 C11 6.66 11 7.32 11 8 C8.17116253 9.41441874 6.12623255 9.31900332 3 9 C0.532661 6.7793949 0.03847554 5.56430797 -0.1875 2.25 C-0.125625 1.5075 -0.06375 0.765 0 0 Z " fill="#7F7F7E" transform="translate(527,724)"/>
<path d="M0 0 C2.97 0.495 2.97 0.495 6 1 C6.36448598 5.4953271 6.36448598 5.4953271 4.78125 7.6875 C3 9 3 9 0.73828125 9.07421875 C-0.06222656 8.94660156 -0.86273437 8.81898438 -1.6875 8.6875 C-2.49574219 8.56761719 -3.30398438 8.44773437 -4.13671875 8.32421875 C-4.75160156 8.21722656 -5.36648438 8.11023438 -6 8 C-6 7.34 -6 6.68 -6 6 C-3.36 6 -0.72 6 2 6 C2.33 5.01 2.66 4.02 3 3 C2.01 2.67 1.02 2.34 0 2 C0 1.34 0 0.68 0 0 Z " fill="#4D4D4D" transform="translate(619,724)"/>
<path d="M0 0 C3.375 -0.125 3.375 -0.125 7 0 C9 2 9 2 9.1953125 4.3828125 C9.17210937 5.28773438 9.14890625 6.19265625 9.125 7.125 C9.10695313 8.03507813 9.08890625 8.94515625 9.0703125 9.8828125 C9.04710937 10.58148437 9.02390625 11.28015625 9 12 C8.01 11.67 7.02 11.34 6 11 C6.33 9.68 6.66 8.36 7 7 C5.35 7 3.7 7 2 7 C2 6.67 2 6.34 2 6 C3.65 6 5.3 6 7 6 C6.67 5.01 6.34 4.02 6 3 C3.03 2.505 3.03 2.505 0 2 C0 1.34 0 0.68 0 0 Z " fill="#454445" transform="translate(499,720)"/>
<path d="M0 0 C2.875 -0.125 2.875 -0.125 6 0 C8 2 8 2 8.1953125 4.3828125 C8.17210937 5.28773438 8.14890625 6.19265625 8.125 7.125 C8.10695313 8.03507813 8.08890625 8.94515625 8.0703125 9.8828125 C8.04710937 10.58148437 8.02390625 11.28015625 8 12 C7.34 12 6.68 12 6 12 C5.67 9.36 5.34 6.72 5 4 C2.525 3.01 2.525 3.01 0 2 C0 1.34 0 0.68 0 0 Z " fill="#5C5C5C" transform="translate(412,720)"/>
<path d="M0 0 C7.26 0 14.52 0 22 0 C22 0.33 22 0.66 22 1 C12.595 1.495 12.595 1.495 3 2 C2.34 4.31 1.68 6.62 1 9 C0.67 9 0.34 9 0 9 C0 6.03 0 3.06 0 0 Z " fill="#0C2F68" transform="translate(345,400)"/>
<path d="M0 0 C2.875 -0.125 2.875 -0.125 6 0 C8 2 8 2 8.1953125 4.3828125 C8.17210937 5.28773438 8.14890625 6.19265625 8.125 7.125 C8.10695313 8.03507813 8.08890625 8.94515625 8.0703125 9.8828125 C8.04710937 10.58148437 8.02390625 11.28015625 8 12 C7.01 11.34 6.02 10.68 5 10 C5.185625 9.236875 5.37125 8.47375 5.5625 7.6875 C6.22819173 4.91032625 6.22819173 4.91032625 5 2 C3.02 2 1.04 2 -1 2 C-0.67 1.34 -0.34 0.68 0 0 Z " fill="#454647" transform="translate(470,720)"/>
<path d="M0 0 C-0.33 2.31 -0.66 4.62 -1 7 C-3.97 6.505 -3.97 6.505 -7 6 C-6.8125 4.125 -6.8125 4.125 -6 2 C-2 0 -2 0 0 0 Z " fill="#118390" transform="translate(803,653)"/>
<path d="M0 0 C0.99 0.495 0.99 0.495 2 1 C3.37342831 1.0689472 4.75002102 1.08467708 6.125 1.0625 C7.40375 1.041875 8.6825 1.02125 10 1 C10 1.99 10 2.98 10 4 C3.375 5.125 3.375 5.125 0 4 C0 2.68 0 1.36 0 0 Z " fill="#E8E8E9" transform="translate(424,730)"/>
<path d="M0 0 C0.66 0.33 1.32 0.66 2 1 C2 2.32 2 3.64 2 5 C-1.63 5 -5.26 5 -9 5 C-8.67 3.68 -8.34 2.36 -8 1 C-8 1.66 -8 2.32 -8 3 C-5.36 3 -2.72 3 0 3 C0 2.01 0 1.02 0 0 Z " fill="#5C5C5B" transform="translate(671,723)"/>
<path d="M0 0 C0.66 1.32 1.32 2.64 2 4 C-0.75 5.625 -0.75 5.625 -4 7 C-6.3125 6.3125 -6.3125 6.3125 -8 5 C-8.33 4.34 -8.66 3.68 -9 3 C-7.6078125 3.0928125 -7.6078125 3.0928125 -6.1875 3.1875 C-3.01604897 3.30894264 -3.01604897 3.30894264 -1.125 1.5 C-0.75375 1.005 -0.3825 0.51 0 0 Z " fill="#474B4E" transform="translate(387,671)"/>
<path d="M0 0 C0.66 0.66 1.32 1.32 2 2 C1.75 4.0625 1.75 4.0625 1 6 C-2.2830098 7.6415049 -5.42545033 6.51888624 -9 6 C-9 5.34 -9 4.68 -9 4 C-6.03 4 -3.06 4 0 4 C0 2.68 0 1.36 0 0 Z " fill="#F4F4F5" transform="translate(360,724)"/>
<path d="M0 0 C1.98 0 3.96 0 6 0 C6 0.66 6 1.32 6 2 C5.360625 2.391875 4.72125 2.78375 4.0625 3.1875 C1.11050849 5.78167435 1.28669109 8.2013431 1 12 C0.67 12 0.34 12 0 12 C0 8.04 0 4.08 0 0 Z " fill="#585858" transform="translate(377,720)"/>
<path d="M0 0 C-0.66 1.98 -1.32 3.96 -2 6 C-2.99 5.01 -3.98 4.02 -5 3 C-6.65 3.66 -8.3 4.32 -10 5 C-7.22392109 0.83588163 -5.08838935 -1.69612978 0 0 Z " fill="#1E618F" transform="translate(291,278)"/>
<path d="M0 0 C0.66 0.66 1.32 1.32 2 2 C4.32275177 2.40047444 6.65739357 2.7397104 9 3 C8.01 4.485 8.01 4.485 7 6 C4.5625 6.4375 4.5625 6.4375 2 6 C0.1875 4 0.1875 4 -1 2 C-0.67 1.34 -0.34 0.68 0 0 Z " fill="#646464" transform="translate(568,727)"/>
<path d="M0 0 C0.66 0.66 1.32 1.32 2 2 C1.67 2.33 1.34 2.66 1 3 C0.76807135 4.51469448 0.58784762 6.03754562 0.4375 7.5625 C0.35371094 8.38878906 0.26992188 9.21507812 0.18359375 10.06640625 C0.12300781 10.70449219 0.06242188 11.34257813 0 12 C-0.66 12 -1.32 12 -2 12 C-2 8.37 -2 4.74 -2 1 C-1.34 0.67 -0.68 0.34 0 0 Z " fill="#474748" transform="translate(554,721)"/>
<path d="M0 0 C1.65 0.33 3.3 0.66 5 1 C5.33 1.99 5.66 2.98 6 4 C3.36 4 0.72 4 -2 4 C-1.34 2.68 -0.68 1.36 0 0 Z " fill="#DBDBDB" transform="translate(531,722)"/>
<path d="M0 0 C0.66 0 1.32 0 2 0 C2 4.62 2 9.24 2 14 C1.67 14 1.34 14 1 14 C0.67 12.02 0.34 10.04 0 8 C-0.33 8 -0.66 8 -1 8 C-1.33 6.02 -1.66 4.04 -2 2 C-1.34 2 -0.68 2 0 2 C0 1.34 0 0.68 0 0 Z " fill="#656566" transform="translate(434,720)"/>
<path d="M0 0 C1.32 0 2.64 0 4 0 C4.33 1.32 4.66 2.64 5 4 C2.69 4 0.38 4 -2 4 C-1.34 2.68 -0.68 1.36 0 0 Z " fill="#DEDEDF" transform="translate(571,722)"/>
<path d="M0 0 C0.66 0 1.32 0 2 0 C3.35015859 4.05047576 2.62084998 6.7920168 2 11 C1.34 11 0.68 11 0 11 C0 7.37 0 3.74 0 0 Z " fill="#464747" transform="translate(386,721)"/>
<path d="M0 0 C1.65 0 3.3 0 5 0 C4.67 1.32 4.34 2.64 4 4 C2.35 3.67 0.7 3.34 -1 3 C-0.67 2.01 -0.34 1.02 0 0 Z " fill="#D3D5D6" transform="translate(471,727)"/>
<path d="M0 0 C1.65 0.33 3.3 0.66 5 1 C5 1.99 5 2.98 5 4 C3.02 4 1.04 4 -1 4 C-0.67 2.68 -0.34 1.36 0 0 Z " fill="#E2E2E1" transform="translate(665,722)"/>
<path d="M0 0 C0.66 0.33 1.32 0.66 2 1 C4.09821215 0.60061233 4.09821215 0.60061233 6 0 C5.67 1.65 5.34 3.3 5 5 C4.34 4.34 3.68 3.68 3 3 C0.525 4.485 0.525 4.485 -2 6 C-1.34 4.02 -0.68 2.04 0 0 Z " fill="#25A0A4" transform="translate(801,647)"/>
<path d="M0 0 C-1.40691607 0.72750788 -2.82606022 1.43140353 -4.25 2.125 C-5.03890625 2.51945313 -5.8278125 2.91390625 -6.640625 3.3203125 C-9 4 -9 4 -11.296875 3.1171875 C-11.85890625 2.74851563 -12.4209375 2.37984375 -13 2 C-11.5882217 1.46605821 -10.17029756 0.94834896 -8.75 0.4375 C-7.96109375 0.14746094 -7.1721875 -0.14257812 -6.359375 -0.44140625 C-3.80896548 -1.04522837 -2.44677771 -0.8473932 0 0 Z " fill="#2BB3AC" transform="translate(407,206)"/>
<path d="M0 0 C0.66 1.32 1.32 2.64 2 4 C-1 6 -1 6 -3.1875 5.625 C-3.785625 5.41875 -4.38375 5.2125 -5 5 C-5 4.34 -5 3.68 -5 3 C-3.35 3 -1.7 3 0 3 C0 2.01 0 1.02 0 0 Z " fill="#616162" transform="translate(631,732)"/>
<path d="M0 0 C1.65 0 3.3 0 5 0 C5 0.99 5 1.98 5 3 C3.35 3.33 1.7 3.66 0 4 C0 2.68 0 1.36 0 0 Z " fill="#E0E0E2" transform="translate(501,727)"/>
<path d="M0 0 C1.32 0.33 2.64 0.66 4 1 C4.33 2.65 4.66 4.3 5 6 C2.69 6 0.38 6 -2 6 C-2 5.67 -2 5.34 -2 5 C-0.35 5 1.3 5 3 5 C2.01 3.35 1.02 1.7 0 0 Z " fill="#494848" transform="translate(355,721)"/>
<path d="M0 0 C1.98 0 3.96 0 6 0 C6.33 0.99 6.66 1.98 7 3 C4.69 3 2.38 3 0 3 C0 2.01 0 1.02 0 0 Z " fill="#E3E2E2" transform="translate(351,723)"/>
<path d="M0 0 C0.66 0 1.32 0 2 0 C2.33 1.98 2.66 3.96 3 6 C2.01 6 1.02 6 0 6 C-0.66 4.68 -1.32 3.36 -2 2 C-1.34 1.34 -0.68 0.68 0 0 Z " fill="#18859C" transform="translate(292,272)"/>
<path d="M0 0 C2.31 0 4.62 0 7 0 C7 0.66 7 1.32 7 2 C4.69 2.33 2.38 2.66 0 3 C0 2.01 0 1.02 0 0 Z " fill="#6B6B6B" transform="translate(352,730)"/>
<path d="M0 0 C2.31 0 4.62 0 7 0 C7.33 0.66 7.66 1.32 8 2 C5.69 2.33 3.38 2.66 1 3 C0.67 2.01 0.34 1.02 0 0 Z " fill="#F5F5F5" transform="translate(530,728)"/>
<path d="M0 0 C1.32 0 2.64 0 4 0 C3.67 1.32 3.34 2.64 3 4 C1.68 4 0.36 4 -1 4 C-0.67 2.68 -0.34 1.36 0 0 Z " fill="#E3E4E4" transform="translate(366,727)"/>
<path d="M0 0 C1.0326802 2.78823655 1.04509293 3.8677274 0.0625 6.75 C-0.288125 7.4925 -0.63875 8.235 -1 9 C-1.66 8.67 -2.32 8.34 -3 8 C-2.45276317 4.62537285 -1.9451 2.91765 0 0 Z " fill="#605F5F" transform="translate(637,720)"/>
<path d="M0 0 C0 3.90838866 -1.50567876 5.11594107 -4 8 C-4.99 7.67 -5.98 7.34 -7 7 C-4.69 4.69 -2.38 2.38 0 0 Z " fill="#2D5A8D" transform="translate(271,293)"/>
<path d="M0 0 C0.99 0.33 1.98 0.66 3 1 C1.37660195 2.70884005 -0.29319053 4.37446717 -2 6 C-2.66 6 -3.32 6 -4 6 C-2.84826645 3.53199953 -1.95216435 1.95216435 0 0 Z " fill="#282C31" transform="translate(318,657)"/>
</svg>
